<?xml version="1.0" standalone="no"?>
<!DOCTYPE svg PUBLIC "-//W3C//DTD SVG 20010904//EN"
 "http://www.w3.org/TR/2001/REC-SVG-20010904/DTD/svg10.dtd">
<svg version="1.0" xmlns="http://www.w3.org/2000/svg"
 width="1280.000000pt" height="474.000000pt" viewBox="0 0 1280.000000 474.000000"
 preserveAspectRatio="xMidYMid meet">
<metadata>
Created by potrace 1.16, written by Peter Selinger 2001-2019
</metadata>
<g transform="translate(0.000000,474.000000) scale(0.100000,-0.100000)"
fill="#000000" stroke="none">
<path d="M700 3974 c-88 -16 -221 -104 -346 -228 -100 -100 -176 -204 -241
-331 -62 -122 -112 -301 -113 -398 0 -102 47 -246 103 -315 51 -62 126 -124
182 -151 82 -39 110 -45 129 -25 22 21 19 42 -9 89 -73 120 -90 174 -101 315
-8 104 15 281 52 393 26 81 80 208 92 217 4 3 16 22 27 43 25 47 142 177 160
177 7 0 15 -6 18 -12 2 -7 1 -485 -4 -1063 -8 -1136 -8 -1138 -65 -1323 -32
-106 -30 -126 14 -130 23 -2 49 7 94 34 141 86 233 229 280 439 20 87 21 126
25 1117 3 740 1 1033 -7 1048 -30 57 -204 119 -290 104z"/>
<path d="M4205 3970 c-42 -16 -48 -35 -56 -198 -5 -86 -10 -190 -11 -231 l-3
-74 -140 2 c-77 1 -154 4 -170 5 -16 2 -36 1 -43 -2 -26 -10 -62 -103 -62
-163 0 -87 3 -88 216 -91 l179 -3 -1 -410 -1 -410 -30 -87 c-39 -111 -103
-223 -171 -299 -30 -33 -56 -58 -59 -56 -2 3 -5 47 -6 98 -2 84 -6 102 -36
164 -45 92 -132 178 -333 329 -87 65 -158 121 -158 123 0 6 42 66 51 73 13 10
95 167 106 205 48 155 -36 245 -204 217 -167 -27 -303 -192 -303 -365 0 -66
20 -122 64 -180 24 -31 24 -33 7 -67 -39 -79 -138 -261 -188 -343 -29 -48 -53
-92 -53 -97 0 -6 -4 -10 -8 -10 -5 0 -14 -12 -21 -27 -24 -54 -105 -165 -145
-199 -49 -42 -84 -43 -104 -2 -28 59 -34 232 -21 638 7 218 9 412 5 432 -10
53 -68 107 -170 158 -77 38 -93 42 -139 38 -73 -7 -142 -43 -208 -110 -122
-124 -201 -279 -325 -638 -15 -41 -30 -79 -35 -84 -5 -6 -9 149 -9 372 l0 382
-32 20 c-45 28 -152 60 -198 60 -71 0 -67 37 -74 -680 -6 -660 -1 -798 30
-855 26 -48 70 -73 134 -75 142 -6 154 0 164 82 26 202 118 532 210 760 57
139 165 344 195 368 3 3 25 30 49 62 38 49 59 68 79 68 3 0 3 -64 -1 -142 -35
-771 -27 -947 46 -1092 43 -85 96 -112 206 -104 49 3 70 12 128 50 97 65 202
179 272 297 19 31 38 58 43 59 5 2 9 8 9 13 0 5 32 61 70 125 39 63 70 119 70
124 0 6 5 10 10 10 6 0 10 5 10 11 0 20 133 229 145 229 7 0 71 -57 143 -127
103 -101 137 -142 163 -193 54 -109 51 -240 -7 -310 -28 -33 -82 -60 -119 -60
-31 0 -129 38 -152 59 -46 43 -99 71 -134 71 -30 0 -43 -7 -74 -41 -41 -46
-75 -117 -75 -158 0 -81 170 -154 385 -168 267 -16 463 78 640 308 47 60 110
169 136 233 9 22 21 42 26 43 6 2 13 -25 17 -61 17 -172 92 -354 174 -427 103
-91 235 -118 337 -68 109 54 214 189 287 369 10 23 12 21 33 -42 23 -67 70
-163 91 -184 6 -7 21 -25 35 -40 52 -61 143 -111 223 -124 176 -28 364 67 481
241 l49 73 11 -45 c27 -104 89 -186 176 -234 65 -35 187 -46 254 -23 80 28
169 113 212 202 9 20 19 36 23 36 3 0 14 -17 25 -37 26 -52 130 -153 185 -181
104 -52 254 -46 372 15 65 34 175 128 196 168 15 29 22 16 29 -60 l6 -67 -45
-42 c-25 -22 -87 -79 -138 -126 -375 -342 -497 -506 -508 -682 -8 -134 33
-240 122 -312 120 -98 318 -133 456 -81 63 24 110 48 110 57 0 5 5 8 10 8 6 0
29 17 52 38 184 169 239 380 238 913 0 328 -6 292 60 369 12 14 47 59 78 100
31 41 59 77 62 80 3 3 11 14 17 25 7 11 37 58 66 105 67 106 103 171 162 291
25 52 52 105 60 119 17 32 85 205 97 248 l9 32 129 0 c71 0 131 -3 133 -7 3
-5 -1 -33 -9 -63 -29 -123 -44 -223 -55 -371 -28 -386 57 -632 259 -745 59
-33 77 -38 149 -42 75 -4 88 -2 140 24 66 32 138 99 173 162 13 23 26 42 30
42 3 0 19 -21 35 -46 88 -139 245 -211 401 -184 136 23 300 142 365 264 13 25
26 46 29 46 3 0 16 -32 29 -70 14 -39 33 -81 43 -93 78 -92 145 -134 237 -147
134 -19 254 48 317 176 14 30 30 54 34 54 4 0 10 -34 13 -75 8 -89 17 -109 59
-131 70 -36 248 -39 291 -4 20 16 22 33 34 261 13 250 30 368 78 534 55 190
145 390 175 390 12 0 15 -17 17 -85 4 -154 24 -433 39 -555 44 -346 93 -434
247 -443 72 -5 122 9 136 37 5 9 9 54 10 100 4 239 97 645 198 868 12 28 28
64 33 79 6 15 13 24 17 20 3 -3 5 -99 4 -213 -4 -395 26 -647 93 -787 95 -197
280 -279 451 -201 96 44 163 161 206 359 24 114 24 147 -2 180 -46 59 -78 26
-115 -120 -45 -177 -83 -236 -152 -238 -74 -1 -128 77 -158 227 -19 99 -28
504 -16 767 10 233 7 261 -40 301 -50 42 -210 109 -262 109 -32 0 -74 -20 -98
-47 -21 -23 -91 -202 -151 -388 -53 -163 -49 -149 -87 -329 -16 -76 -31 -141
-34 -143 -12 -13 -24 141 -35 487 -9 263 -13 282 -65 334 -61 60 -206 102
-268 77 -54 -20 -109 -136 -215 -452 l-68 -204 -3 286 c-3 347 8 323 -155 359
-91 20 -111 21 -132 10 -13 -7 -26 -19 -29 -27 -3 -7 -8 -233 -12 -501 -6
-517 -9 -552 -59 -673 -31 -77 -87 -162 -124 -188 -43 -31 -93 -27 -134 9 -73
63 -92 241 -83 745 3 187 9 381 13 432 l6 92 -30 28 c-39 36 -98 54 -194 61
-71 4 -77 3 -93 -19 -9 -13 -16 -40 -16 -61 0 -21 -2 -38 -4 -38 -2 0 -33 28
-68 63 -72 71 -112 93 -200 109 -114 20 -236 -18 -325 -102 -119 -113 -211
-303 -248 -515 -23 -133 -28 -354 -12 -483 17 -133 9 -185 -45 -263 -73 -108
-191 -103 -247 11 -49 99 -56 144 -56 375 1 216 2 223 39 395 65 301 64 291
35 347 -46 89 -118 102 -340 59 -149 -29 -196 -36 -202 -30 -2 2 0 25 4 52 22
142 -76 228 -216 188 -102 -30 -169 -128 -170 -247 0 -74 13 -107 63 -161 l35
-37 -17 -68 c-10 -37 -33 -110 -53 -163 -39 -105 -162 -363 -175 -368 -4 -2
-8 -8 -8 -13 0 -14 -122 -199 -131 -199 -10 0 -10 245 0 730 5 211 4 353 -2
367 -12 27 -100 62 -178 70 -96 10 -139 -12 -139 -71 0 -18 -2 -35 -5 -38 -3
-3 -34 22 -68 56 -69 68 -111 91 -192 109 -70 14 -165 -1 -242 -38 -148 -73
-277 -285 -334 -550 -25 -115 -37 -421 -20 -518 10 -57 9 -76 -5 -124 -38
-130 -107 -213 -179 -213 -70 0 -124 74 -145 200 -18 105 -23 462 -11 790 10
285 10 307 -7 329 -25 34 -105 62 -193 68 -69 5 -78 4 -98 -16 -13 -13 -21
-34 -21 -55 0 -44 -13 -53 -34 -21 -57 86 -187 155 -294 155 -54 0 -147 -26
-197 -56 -24 -14 -66 -48 -94 -77 -149 -154 -231 -386 -251 -712 -5 -82 -13
-163 -18 -180 -42 -132 -111 -257 -178 -321 -41 -38 -94 -59 -129 -50 -37 9
-75 68 -96 148 -29 106 -34 332 -19 807 6 221 13 410 15 419 2 9 4 27 4 40 l1
22 208 0 c114 0 216 3 227 6 41 11 79 152 52 188 -13 18 -38 21 -243 34 -126
8 -232 17 -236 21 -3 3 -2 98 3 210 5 131 5 209 -1 216 -37 44 -254 104 -305
85z m1419 -1074 c96 -40 146 -163 161 -398 8 -121 -14 -344 -46 -458 -63 -227
-203 -355 -322 -294 -104 54 -159 229 -158 504 0 338 76 576 204 639 49 24
113 27 161 7z m1516 8 c38 -8 94 -61 114 -109 85 -202 63 -652 -43 -881 -50
-107 -138 -184 -210 -184 -140 0 -222 186 -222 510 0 80 5 177 11 215 53 336
169 485 350 449z m2674 -14 c81 -39 129 -151 147 -343 28 -298 -43 -622 -163
-745 -134 -138 -273 -73 -331 156 -19 77 -22 111 -21 302 1 181 4 231 22 317
37 171 101 282 185 318 46 20 114 18 161 -5z m-2474 -1679 c0 -266 -27 -448
-83 -571 -41 -88 -84 -124 -162 -139 -126 -24 -215 55 -215 190 0 101 98 298
216 432 84 97 227 247 235 247 5 0 9 -72 9 -159z"/>
</g>
</svg>
